<svg viewBox="0 0 496 496" xmlns="http://www.w3.org/2000/svg"><path d="M264 152c0 8.836-7.164 16-16 16s-16-7.164-16-16 7.164-16 16-16 16 7.164 16 16zm0 0M360 152c0 8.836-7.164 16-16 16s-16-7.164-16-16 7.164-16 16-16 16 7.164 16 16zm0 0"/><path d="M440.184 348.762l-52.97-12.227-22.78-15.183c-3.168-2.13-7.395-1.696-10.098 1l-5.434 5.433-3.847-19.25c27.93-13.687 49.36-38.582 58.312-68.863C423.832 237.91 440 220.902 440 200V96c0-34.105-26.816-62.062-60.855-63.902C359.559 11.656 332.375 0 304 0h-48c-57.344 0-104 46.656-104 104v96c0 20.902 16.168 37.91 36.633 39.656 8.941 30.29 30.375 55.176 58.312 68.864l-3.847 19.25-5.434-5.434c-2.703-2.703-6.937-3.129-10.098-1l-22.78 15.184-46.106 10.64c-4.993-24.695-24-43.16-46.68-43.16-11.871 0-23.273 5.2-32 14.305C71.273 309.199 59.871 304 48 304c-26.473 0-48 25.129-48 56 0 20.809 9.8 38.969 24.281 48.617.649 18.863 3.453 37.582 8.649 55.735l5.496 19.214C40.504 490.886 47.273 496 54.879 496 64.32 496 72 488.32 72 478.879V440c0-4.414 3.586-8 8-8s8 3.586 8 8v38.879c0 9.059 7.09 16.418 16 17V496h384c4.426 0 8-3.574 8-8v-69.09c0-33.726-22.953-62.574-55.816-70.148zm-79.168-10.465l11.886 7.918-38.148 57.226L315.312 384zm-225.313 70.336c13.703-9.13 23.16-25.89 24.152-45.297l44.56-10.297 44.929 67.402a8.003 8.003 0 0012.312 1.215l9.48-9.48 8.81 11.754-7.009 56.07H122.61l4.47-15.64c5.144-18.008 7.944-36.606 8.624-55.727zm158.418 30.918c.621.16 1.215.449 1.879.449s1.258-.29 1.879-.45l5.058 40.45h-13.882zM392 184H200V99.543l15.734 5.898c51.512 19.313 109.028 19.313 160.524 0L392 99.543zm14.895 38.871c.648-4.879 1.105-9.816 1.105-14.871v-30.527c9.29 3.312 16 12.113 16 22.527 0 10.824-7.238 19.887-17.105 22.871zM256 16h48c25 0 48.902 10.695 65.594 29.336C371.114 47.03 373.727 48 376 48c26.473 0 48 21.527 48 48v72.207c-4.672-3.535-10.055-6.184-16-7.39V88a7.995 7.995 0 00-3.45-6.574 7.968 7.968 0 00-7.359-.914l-26.55 9.953c-47.887 17.969-101.383 17.969-149.29 0l-26.542-9.953a7.99 7.99 0 00-7.36.914A7.995 7.995 0 00184 88v72.809c-5.945 1.214-11.328 3.855-16 7.39V104c0-48.52 39.48-88 88-88zm-88 184c0-10.414 6.71-19.215 16-22.527V208c0 5.055.457 9.992 1.105 14.871C175.246 219.887 168 210.824 168 200zm32 8v-8h192v8c0 52.938-43.063 96-96 96s-96-43.063-96-96zm62.016 106.695a111.496 111.496 0 0067.968 0l5.336 26.68-36.976 36.977c-1.559 1.55-2.344 3.601-2.344 5.648s.785 4.098 2.344 5.656l11.097 11.098L296 418.664l-13.441-17.91 11.097-11.098c1.559-1.558 2.344-3.61 2.344-5.656s-.785-4.098-2.344-5.656l-36.976-36.977zm-31.032 23.602L276.687 384l-19.449 19.45-38.148-57.227zM80 416c-13.23 0-24 10.77-24 24v38.879c0 1.121-1.895 1.367-2.191.305l-5.496-19.215a215.637 215.637 0 01-7.801-44.723c2.449.45 4.937.754 7.488.754v-16c-17.648 0-32-17.945-32-40s14.352-40 32-40c9.863 0 19.055 5.656 25.207 15.52 2.922 4.687 10.656 4.687 13.578 0C92.945 325.656 102.137 320 112 320c17.648 0 32 17.945 32 40s-14.352 40-32 40v16c2.55 0 5.04-.305 7.488-.754a216.065 216.065 0 01-7.8 44.723l-5.497 19.215c-.296 1.062-2.199.816-2.191-.305V440c0-13.23-10.77-24-24-24zm400 64H319.062l-7.007-56.07 8.808-11.754 9.48 9.48a7.972 7.972 0 006.45 2.305 7.989 7.989 0 005.863-3.52l44.93-67.402 49.008 11.313C462.152 370.238 480 392.68 480 418.91zm0 0"/></svg>