<svg viewBox="0 0 300 300" xmlns="http://www.w3.org/2000/svg"><path d="M189.005 38.878a4.277 4.277 0 100-8.554 4.277 4.277 0 000 8.554zM248 61.675c2.211 0 4-1.791 4-4v-8c0-2.209-1.789-4-4-4s-4 1.791-4 4v8c0 2.209 1.789 4 4 4zM248 69.675c-2.211 0-4 1.791-4 4v8c0 2.209 1.789 4 4 4s4-1.791 4-4v-8c0-2.209-1.789-4-4-4zM232 69.675h8c2.211 0 4-1.791 4-4s-1.789-4-4-4h-8c-2.211 0-4 1.791-4 4s1.789 4 4 4zM264 61.675h-8c-2.211 0-4 1.791-4 4s1.789 4 4 4h8c2.211 0 4-1.791 4-4s-1.789-4-4-4zM46 241.675c-7.719 0-14 6.281-14 14s6.281 14 14 14 14-6.281 14-14-6.281-14-14-14zm0 20c-3.309 0-6-2.691-6-6s2.691-6 6-6 6 2.691 6 6-2.691 6-6 6zM117.005 250.325a4.276 4.276 0 100 8.553 4.276 4.276 0 000-8.553zM245.945 99.694C188.328 83.156 129.89 82.581 72.272 97.969L69.77 96.6l-6.262-11.451c-1.398-2.562-5.617-2.562-7.016 0L50.23 96.6l-11.453 6.262c-1.285.701-2.082 2.047-2.082 3.51s.797 2.809 2.082 3.51l11.453 6.262 5.788 10.584c0 .032-.018.058-.018.09v20.879c0 7.707 6.273 13.979 13.98 13.979H72v12h-2.02c-7.707 0-13.98 6.271-13.98 13.979v29.396c0 6.936 5.145 12.889 11.965 13.852 28.016 3.953 56.77 5.932 86.07 5.932 29.465 0 59.477-2 89.828-6 6.918-.91 12.137-6.879 12.137-13.883v-29.297c0-7.707-6.273-13.979-13.98-13.979H240v-12h2.02c7.707 0 13.98-6.271 13.98-13.979v-34.559c0-6.217-4.137-11.747-10.055-13.444zm-190.851 9.992l-6.062-3.314 6.062-3.314a4 4 0 001.59-1.59L60 95.405l3.316 6.062a4 4 0 001.59 1.59l6.062 3.314-6.062 3.314a4 4 0 00-1.59 1.59L60 117.339l-3.316-6.062a4.01 4.01 0 00-1.59-1.591zM88 193.675c-4.41 0-8-3.588-8-8v-16h16v16c0 4.412-3.59 8-8 8zm16-8v-8h16v16c0 4.412-3.59 8-8 8s-8-3.588-8-8zm24-8h24v16c0 6.617-5.383 12-12 12s-12-5.383-12-12zm32 0h24v16c0 6.617-5.383 12-12 12s-12-5.383-12-12zm32 0h16v16c0 4.412-3.59 8-8 8s-8-3.588-8-8zm24-8h16v16c0 4.412-3.59 8-8 8s-8-3.588-8-8zm16-8h-16v-16c0-4.412 3.59-8 8-8s8 3.588 8 8zm-24 8h-16v-20c0-4.412 3.59-8 8-8s8 3.588 8 8zm-24 0h-24v-20c0-6.617 5.383-12 12-12s12 5.383 12 12zm-32 0h-24v-20c0-6.617 5.383-12 12-12s12 5.383 12 12zm-32 0h-16v-20c0-4.412 3.59-8 8-8s8 3.588 8 8zm-24-8H80v-16c0-4.412 3.59-8 8-8s8 3.588 8 8zm146.02 20a5.986 5.986 0 015.98 5.979v29.297c0 3.004-2.227 5.562-5.184 5.953-59.809 7.881-118.262 7.908-173.734.076-2.898-.408-5.082-2.957-5.082-5.93v-29.396a5.987 5.987 0 015.98-5.979H72v4c0 8.822 7.176 16 16 16 3.316 0 6.399-1.016 8.957-2.75 2.185 6.237 8.067 10.75 15.043 10.75 4.475 0 8.514-1.856 11.42-4.826 3.598 5.321 9.688 8.826 16.58 8.826 6.565 0 12.351-3.223 16-8.124 3.649 4.901 9.435 8.124 16 8.124 6.893 0 12.982-3.505 16.58-8.826 2.906 2.97 6.945 4.826 11.42 4.826 6.976 0 12.858-4.513 15.043-10.75a15.913 15.913 0 008.957 2.75c8.824 0 16-7.178 16-16v-4zm5.98-33.979a5.987 5.987 0 01-5.98 5.979H240v-8c0-8.822-7.176-16-16-16-5.84 0-10.904 3.177-13.698 7.86-2.792-2.373-6.359-3.86-10.302-3.86-4.475 0-8.514 1.856-11.42 4.826-3.598-5.321-9.688-8.826-16.58-8.826-6.565 0-12.351 3.223-16 8.124-3.649-4.901-9.435-8.124-16-8.124-6.893 0-12.982 3.505-16.58 8.826-2.906-2.97-6.945-4.826-11.42-4.826-3.943 0-7.51 1.487-10.302 3.86-2.794-4.683-7.858-7.86-13.698-7.86-8.824 0-16 7.178-16 16v8h-2.02a5.986 5.986 0 01-5.98-5.979v-20.879c0-.032-.018-.058-.018-.09l5.788-10.584 11.453-6.262a3.996 3.996 0 002.082-3.51c0-1.001-.395-1.93-1.042-2.653 53.634-12.917 107.908-11.713 161.476 3.664 2.508.719 4.262 3.086 4.262 5.754v34.56z"/><path d="M171.918 114.27c-6.395 0-12.406 2.49-16.922 7.01a4.002 4.002 0 000 5.658c.781.779 1.805 1.17 2.828 1.17s2.047-.391 2.828-1.172a15.819 15.819 0 0111.266-4.666c3.93 0 7.707 1.443 10.633 4.062a3.996 3.996 0 005.648-.309 3.998 3.998 0 00-.312-5.648 23.902 23.902 0 00-15.969-6.105z"/></svg>