<svg viewBox="0 0 496 496.432" xmlns="http://www.w3.org/2000/svg"><path d="M128.367 173.258l15.031 5.484a365.348 365.348 0 005.547-16.344l-15.265-4.789a370.407 370.407 0 01-5.313 15.649zm0 0M240.215 48V32h-11.742c-40.985 0-76.235 29.8-81.993 69.313-2 13.71-4.785 27.39-8.296 40.648l15.472 4.094a382.181 382.181 0 008.664-42.43C166.938 71.91 195.383 48 228.473 48zm0 0M311.352 102.688l-15.786 2.617c3.985 24.015 15.176 45.793 32.364 62.976 17.175 17.184 38.957 28.375 62.972 32.367l2.625-15.785c-20.703-3.437-39.48-13.086-54.28-27.902-14.813-14.8-24.462-33.57-27.895-54.274zm0 0M364.602 266.367l-4.387-2.879-4.383 2.88c-17.96 11.784-38.832 19.066-60.352 21.058l-7.265.672V354.8c0 45.816 26.976 87.504 68.73 106.199l3.27 1.473 3.273-1.465c41.75-18.703 68.727-60.39 68.727-106.2v-66.703l-7.262-.671c-21.52-2-42.394-9.282-60.351-21.067zm51.613 88.442c0 38.304-21.863 73.261-56 90.062-34.137-16.8-56-51.758-56-90.062v-52.305c19.816-2.832 38.96-9.664 56-19.992 17.043 10.328 36.183 17.16 56 19.992zm0 0M170.367 434.66l13.602-8.422 8.422 13.602-13.602 8.422zm0 0M197.578 417.82l13.602-8.422L219.602 423 206 431.422zm0 0M224.785 400.973l11.195-6.93 8.426 13.602-11.195 6.93zm0 0"/><path d="M496.215 250.305c0-50.578-39.543-91.993-91.977-96.328-15.98-1.32-31.023-8.297-42.367-19.633s-18.312-26.383-19.633-42.367C337.895 39.543 296.488 0 245.91 0h-17.437c-56.754 0-105.618 41.566-113.657 96.688-6.57 45.046-22.046 87.519-46 126.222L5.145 325.77a32.898 32.898 0 00-4.93 17.32c0 18.14 14.77 32.91 32.992 32.91a32.882 32.882 0 0017.16-4.832l132.016-80.68a17.055 17.055 0 018.855-2.488c9.364 0 16.977 7.617 16.977 16.977 0 3.12-.863 6.183-2.496 8.847l-80.672 132.024c-3.16 5.168-4.832 11.105-4.832 17.242 0 18.14 14.77 32.91 32.914 32.91a32.93 32.93 0 0017.328-4.93l102.848-63.664c.488-.3.984-.574 1.472-.863 17.59 31.855 46.649 56.969 82.91 69.059l2.528.832 2.527-.84a148.208 148.208 0 00101.473-140.785v-7.618c20.601-21.527 32-49.558 32-79.449zm-48 104.504c0 56.183-35.246 105.976-88 124.726a132.213 132.213 0 01-88-124.726V272h10.746c28.719 0 55.863-10.258 77.254-29.04 21.387 18.782 48.527 29.04 77.258 29.04h10.742zm32-87.067c0 19.45-5.621 37.985-16 53.906V256h-26.742c-27.047 0-52.473-10.527-71.602-29.656l-5.656-5.657-5.656 5.657C335.434 245.473 310.008 256 282.96 256h-26.746v98.809a148.33 148.33 0 0011.496 57.328c-.941.55-1.895 1.086-2.832 1.664l-102.84 63.664a16.9 16.9 0 01-8.91 2.535c-9.328 0-16.914-7.586-16.914-16.992 0-3.113.855-6.16 2.488-8.817l80.68-132.023a33.022 33.022 0 004.832-17.191c0-18.184-14.79-32.977-32.977-32.977a33.022 33.022 0 00-17.191 4.832L42.023 357.52c-2.656 1.625-5.703 2.48-8.894 2.48-9.328 0-16.914-7.586-16.914-16.91 0-3.145.875-6.227 2.527-8.906l63.664-102.848C107.527 190.762 123.762 146.23 130.648 99c6.903-47.32 48.954-83 97.825-83h17.437c42.18 0 76.738 33.23 80.387 77.297 1.633 19.742 10.246 38.344 24.262 52.36s32.617 22.64 52.363 24.265c44.062 3.644 77.293 38.207 77.293 80.383zm0 0"/><path d="M320.215 352v16c17.648 0 32 14.352 32 32h16c0-17.648 14.351-32 32-32v-16c-17.649 0-32-14.352-32-32h-16c0 17.648-14.352 32-32 32zm53.52 8a48.376 48.376 0 00-13.52 13.52 48.325 48.325 0 00-13.52-13.52 48.325 48.325 0 0013.52-13.52 48.376 48.376 0 0013.52 13.52zm0 0M110.473 282.234l13.312-8.875 8.875 13.313-13.312 8.875zm0 0M83.844 299.98l13.312-8.875 8.875 13.313-13.312 8.875zm0 0M57.219 317.73l13.316-8.875 8.875 13.317-13.316 8.875zm0 0"/></svg>