<svg viewBox="0 0 64 64" xmlns="http://www.w3.org/2000/svg"><path d="M12.002 29.203v5.8a3.004 3.004 0 003 2.996H27v1h-1.001c-1.654 0-3 1.346-3 3s1.346 3 3 3H27v1h-1.001c-1.654 0-3 1.346-3 3s1.346 3 3 3H27V53h-1.001c-1.654 0-3 1.346-3 3s1.346 3 3 3h1.524l3.695 4.624a1 1 0 001.563 0L36.477 59h1.524c1.654 0 3-1.346 3-3s-1.346-3-3-3H37v-1.001h1.001c1.654 0 3-1.346 3-3s-1.346-3-3-3H37v-1h1.001c1.654 0 3-1.346 3-3s-1.346-3-3-3H37v-1h11.998a3.004 3.004 0 003-2.996v-5.8C55.81 26.054 58 21.462 58 16.5 58 7.402 50.598 0 41.5 0A16.304 16.304 0 0032 3.025 16.304 16.304 0 0022.5 0C13.402 0 6 7.402 6 16.5c0 4.962 2.191 9.554 6.002 12.703zM32 61.398L30.083 59h3.834zM38.001 57H25.999a1 1 0 010-2h12.002a1 1 0 010 2zM35 53h-6v-1.001h6zm3.001-3.001H25.999a1 1 0 010-2h1.996L28 48l.005-.001h7.99L36 48l.005-.001h1.996a1 1 0 010 2zm-3.001-4h-6v-1h6zm3.001-3H25.999a1 1 0 010-2h1.996L28 41l.005-.001h7.99L36 41l.005-.001h1.996a1 1 0 010 2zm-3.001-4h-6v-1h6zM22.5 2c3.24 0 6.313 1.058 8.886 3.06.361.281.867.281 1.229 0A14.346 14.346 0 0141.5 2C49.495 2 56 8.505 56 16.5c0 4.512-2.047 8.689-5.615 11.46-.017.013-.024.033-.04.047-.053.046-.093.1-.135.155-.037.05-.075.097-.103.152-.026.055-.039.112-.057.172a.959.959 0 00-.041.204c-.001.021-.012.039-.012.06v6.249a1 1 0 01-1 1H15.002a1 1 0 01-1-1V28.75c0-.022-.012-.041-.013-.063a.93.93 0 00-.039-.193c-.017-.063-.031-.125-.06-.183-.025-.052-.063-.096-.097-.143a.974.974 0 00-.142-.165c-.016-.013-.022-.032-.038-.044A14.416 14.416 0 018 16.5C8 8.505 14.505 2 22.5 2z"/><path d="M41.5 7c5.238 0 9.5 4.262 9.5 9.5a1 1 0 102 0C53 10.159 47.841 5 41.5 5a1 1 0 100 2z"/></svg>