<svg viewBox="0 0 50 60" xmlns="http://www.w3.org/2000/svg"><path d="M34 42H16a2 2 0 00-2 2c0 11.75 0 11.11.08 11.38s-.1 0 3.63 3.74a3 3 0 002.12.88h10.34a3 3 0 002.12-.88l3.42-3.41A1.05 1.05 0 0036 55V44a2 2 0 00-2-2zm0 7.45c-1.6 1-7.83 4.31-18 4.53V49c9.17-.18 15.27-2.76 18-4.22zm0 2.31V54h-5.39A31.7 31.7 0 0034 51.76zM31 44a40.09 40.09 0 01-15 3v-3zm-.79 14H19.83c-.55 0-.62-.21-2.42-2h15.18c-1.83 1.83-1.88 2-2.42 2zM14 29v2a2 2 0 002 2h2v5a2 2 0 002 2h10a2 2 0 002-2v-5h2a2 2 0 002-2v-2a2 2 0 002-2v-2a2 2 0 00-2-2h-.43l-1.83-3a2 2 0 001.44-1A14.81 14.81 0 0037 12c0-5.8-1.84-12-7-12-3.36 0-3.85 3-5 3s-1.64-3-5-3c-5.16 0-7 6.2-7 12a14.81 14.81 0 001.82 7 2 2 0 001.44 1l-1.83 3H14a2 2 0 00-2 2v2a2 2 0 002 2zm16 9H20v-5h10zm4-7H16v-2h18zM15 12c0-1.67.24-10 5-10a2.69 2.69 0 012.29 1.36A3.43 3.43 0 0025 5a3.43 3.43 0 002.71-1.64A2.69 2.69 0 0130 2c4.76 0 5 8.33 5 10a13 13 0 01-1.57 6H16.57A13 13 0 0115 12zm3.57 8h12.86l1.8 3H16.77zM14 25h22v2H14zM45.29 26.71a1 1 0 001.42 0l3-3a1.004 1.004 0 00-1.42-1.42L47 23.59V13a1 1 0 00-2 0v10.59l-1.29-1.3a1.004 1.004 0 10-1.42 1.42zM3.29 45.71a1 1 0 001.42 0l3-3a1.004 1.004 0 00-1.42-1.42L5 42.59V32a1 1 0 00-2 0v10.59l-1.29-1.3a1.004 1.004 0 00-1.42 1.42z"/><path d="M18.61 6.9a1 1 0 001.33-.47c.18-.36.3-.48.28-.48a1 1 0 00-.85-1.81 2.79 2.79 0 00-1.23 1.43 1 1 0 00.47 1.33zM18.06 14a1 1 0 001-1.12 15.08 15.08 0 010-2.78 1 1 0 10-1.99-.2 16.49 16.49 0 000 3.22 1 1 0 00.99.88z"/></svg>