<svg viewBox="0 0 64 64" xmlns="http://www.w3.org/2000/svg"><path d="M55 27H57.003c.133 0 .26-.028.377-.076.044-.019.078-.051.119-.075.067-.039.136-.075.192-.129.038-.037.063-.084.095-.126.043-.058.089-.112.12-.179.022-.05.029-.105.044-.159.017-.059.044-.112.049-.175l.961-11.822A8 8 0 0062 8c0-4.411-3.589-8-8-8a7.926 7.926 0 00-5 1.757A7.918 7.918 0 0044 0c-4.411 0-8 3.589-8 8a7.999 7.999 0 003.042 6.259l.961 11.822c.005.063.032.116.049.176.015.054.021.108.044.158.031.066.077.121.121.179.031.043.056.089.094.126.057.054.125.09.192.13.041.023.075.056.119.074a.991.991 0 00.377.076H43.002c2.757 0 5-2.243 5-5v-2.004a1 1 0 111.998 0V22c0 2.757 2.243 5 5 5zm4.894-20.106a6.01 6.01 0 01-4.787-4.787 6.013 6.013 0 014.787 4.787zM49 16.996a3.003 3.003 0 00-2.998 3V22c0 1.654-1.346 3-3 3h-1.08l-.921-11.333c-.001-.018-.012-.03-.014-.048-.009-.067-.034-.129-.057-.194-.021-.058-.035-.117-.065-.17-.032-.057-.079-.103-.123-.152-.041-.046-.077-.095-.126-.132-.017-.013-.024-.031-.041-.043A6.013 6.013 0 0138 8c0-3.309 2.691-6 6-6 1.626 0 3.147.641 4.285 1.805a1 1 0 001.43-.001 5.952 5.952 0 013.366-1.728 8.005 8.005 0 006.84 6.841 6.01 6.01 0 01-2.493 4.008c-.021.014-.03.036-.049.051-.034.027-.06.063-.091.095-.057.061-.113.118-.152.188-.028.05-.042.105-.062.16-.023.065-.049.128-.058.196-.003.019-.014.033-.016.052L56.08 25H55c-1.654 0-3-1.346-3-3v-2.004c0-1.654-1.346-3-3-3zM23.996 50.997a1 1 0 001-1v-1.77A7.998 7.998 0 0028 41.998c0-4.411-3.589-8-8-8a7.918 7.918 0 00-5 1.757 7.926 7.926 0 00-5-1.757c-4.411 0-8 3.589-8 8a7.998 7.998 0 003 6.228v1.771a1 1 0 001 1h5V52a1 1 0 100 2v1a1 1 0 100 2v1a1 1 0 100 2v.998c0 .334.167.646.445.832l3.002 2.002a1 1 0 001.111-.001l2.996-2.002c.277-.186.444-.497.444-.831V60H19a1 1 0 100-2h-.002v-1H19a1 1 0 100-2h-.002v-1H19a1 1 0 100-2h-.002v-1.003zM4 41.998c0-3.309 2.691-6 6-6 1.624 0 3.146.641 4.285 1.805a1.002 1.002 0 001.43 0A5.946 5.946 0 0120 35.998c3.309 0 6 2.691 6 6a6.013 6.013 0 01-2.575 4.928c-.023.017-.036.042-.058.061a.98.98 0 00-.145.15 1.037 1.037 0 00-.101.15.912.912 0 00-.069.178.923.923 0 00-.039.195c-.003.029-.018.056-.018.086v1.251H7v-1.253c0-.03-.015-.055-.017-.084a1.032 1.032 0 00-.04-.199c-.019-.062-.038-.118-.067-.174s-.064-.104-.104-.153a.905.905 0 00-.142-.148c-.021-.019-.034-.045-.059-.062A6.013 6.013 0 014 41.998zm12.998 18.466l-1.997 1.334L13 60.463V60h3.998zm0-2.464H13v-1h3.998zm0-3H13v-1h3.998zm0-3H13v-1.003h3.998zM49.002 49.001a1 1 0 001-1l-.002-.01V29a1 1 0 10-2 0v18.001H32.413l.294-.294a.999.999 0 10-1.414-1.414l-1.999 2a.99.99 0 00-.217.326.992.992 0 000 .764.99.99 0 00.217.326l1.999 1.998a.997.997 0 001.414 0 .999.999 0 000-1.414l-.292-.292zM31.293 15.293a.999.999 0 101.414 1.414l1.999-2a.99.99 0 00.217-.326.992.992 0 000-.764.99.99 0 00-.217-.326l-1.999-1.998a.999.999 0 10-1.414 1.414l.292.292H15a1 1 0 00-1 1v16.999a1 1 0 102 0V14.999h15.587z"/></svg>