<svg viewBox="0 -60 512.001 512" xmlns="http://www.w3.org/2000/svg"><path d="M509.035 142.492c-4.789-26.094-15.031-46.547-28.836-57.594-24.664-19.742-45.64-12.78-65.926-6.05-10.55 3.5-21.46 7.12-33.78 7.367-12.325-.246-23.235-3.867-33.786-7.367-20.285-6.735-41.262-13.692-65.926 6.05-10.695 8.559-19.238 22.786-24.777 40.887-5.543-18.105-14.086-32.332-24.777-40.883-24.665-19.754-45.641-12.789-65.926-6.058-10.551 3.504-21.461 7.125-33.785 7.37-6.223-.12-12.086-1.109-17.723-2.507a50.872 50.872 0 019.422-4.121l7.59-2.438a.19.19 0 00.027-.011 13.138 13.138 0 009.113-12.551 13.126 13.126 0 00-9.14-12.512l-7.59-2.441C107.629 44.62 95.332 32.32 90.32 16.727l-2.449-7.61A13.136 13.136 0 0075.34 0h-.02a13.13 13.13 0 00-12.515 9.14l-2.438 7.59c-5.012 15.594-17.312 27.891-32.906 32.903l-7.586 2.441a13.121 13.121 0 00-9.14 12.512c-.012 5.734 3.652 10.781 9.136 12.562l7.598 2.442a50.36 50.36 0 017.351 3.031 79.594 79.594 0 00-3.02 2.281C18.009 95.95 7.767 116.402 2.97 142.496c-5.602 30.52-3.223 66.274 6.699 100.672 10.43 36.172 28.344 69.008 51.805 94.96 5.492 6.067 13.59 8.88 21.68 7.52 8.132-1.363 14.913-6.707 18.144-14.3 4.898-11.532 8.875-22.102 11.824-31.414 2.543-8.051 9.934-13.457 18.395-13.457a19.17 19.17 0 0111.41 3.722 19.105 19.105 0 016.988 9.735c2.93 9.27 6.914 19.836 11.832 31.414 3.219 7.582 9.992 12.925 18.117 14.297 1.348.23 2.7.34 4.035.34 6.688 0 13.082-2.794 17.664-7.848l.012-.012c23.453-25.953 41.363-58.79 51.793-94.957.965-3.34 1.832-6.695 2.653-10.05a255.767 255.767 0 003.39 12.487c2.445 8.18 10.137 13.891 18.7 13.891h5.663v8.598c0 13.25 10.782 24.031 24.032 24.031h34.843l1.012 16.75-2.918.344c-5.484.64-9.41 5.61-8.77 11.094.598 5.09 4.919 8.84 9.923 8.84.386 0 .777-.02 1.175-.067l1.801-.211 1.016 16.77-5.14.601c-5.49.645-9.415 5.61-8.774 11.098.597 5.09 4.918 8.84 9.922 8.84.386 0 .78-.024 1.175-.07l4.028-.47.172 2.86c.824 13.633 12.167 24.312 25.828 24.312h14.793c13.656 0 25-10.68 25.824-24.312l.652-10.73 7.496-.88c5.485-.64 9.41-5.609 8.77-11.093-.64-5.488-5.61-9.41-11.098-8.774l-3.941.461 1.027-17.008 5.242-.613c5.485-.644 9.41-5.61 8.77-11.097-.64-5.485-5.61-9.415-11.098-8.77l-1.687.2.488-8.075h31.996c13.25 0 24.031-10.781 24.031-24.031v-8.598h8.512c8.562 0 16.254-5.71 18.7-13.887 10.55-35.246 13.198-71.867 7.46-103.117zM75.348 32.816a71.204 71.204 0 0031.777 31.79 71 71 0 00-21.582 16.617A70.587 70.587 0 0075.34 96.375a71.054 71.054 0 00-14.63-19.758c-.003 0-.003 0-.007-.004A71.311 71.311 0 0043.555 64.61a71.17 71.17 0 0031.793-31.793zm111.394 291.891c-1.242 1.371-2.758 1.352-3.547 1.215-.812-.137-2.289-.629-3.039-2.395-4.672-10.992-8.43-20.964-11.168-29.617-2.527-8.02-7.457-14.887-14.25-19.851-6.77-4.961-14.8-7.586-23.218-7.586-.145 0-.29.007-.43.011 4.363-4.105 9.695-6.988 16.082-6.988 5.523 0 10-4.48 10-10 0-5.523-4.477-10.004-10-10.004-34.719 0-48.477 40.86-50.781 48.625a39.931 39.931 0 00-2.34 5.781c-2.758 8.711-6.512 18.684-11.156 29.622-.754 1.773-2.239 2.265-3.055 2.402-.79.133-2.297.152-3.531-1.207C34 277.91 11.929 204.46 22.64 146.109c3.87-21.05 11.765-37.668 21.66-45.59 2.379-1.898 4.695-3.46 6.996-4.703a48.7 48.7 0 011.734 2.258c.168.227.324.461.489.692.406.578.804 1.164 1.187 1.757.148.239.305.473.453.715.5.809.988 1.625 1.442 2.461l.007.008c.457.84.883 1.695 1.293 2.559.118.254.23.507.348.761a64.544 64.544 0 011.156 2.742c.344.895.672 1.797.965 2.708l2.438 7.59a13.13 13.13 0 0012.515 9.14h.02c5.011 0 9.496-2.8 11.726-7.172.32-.625.594-1.281.813-1.965l2.445-7.597c.238-.743.5-1.477.77-2.203l.222-.582c.242-.63.496-1.254.762-1.872l.129-.308c.312-.703.64-1.399.98-2.086.086-.172.172-.34.262-.512.29-.566.586-1.129.895-1.683.082-.141.16-.286.238-.426.383-.668.777-1.324 1.187-1.969.086-.14.18-.277.27-.414.191-.297.394-.59.594-.883 10.172 3.285 21.55 6.457 34.71 6.684h.348c15.45-.274 28.446-4.586 39.91-8.39 18.633-6.184 30.942-10.274 47.125 2.687 9.899 7.918 17.793 24.535 21.665 45.593 10.707 58.348-11.356 131.786-53.653 178.598zm207.008 42.59a5.885 5.885 0 01-5.863 5.515h-14.793a5.887 5.887 0 01-5.864-5.515l-.238-3.985 27.188-3.18zm1.66-27.445l-29.629 3.464-1.015-16.77 31.671-3.706zm2.254-37.293l-34.11 3.992-.87-14.426h35.613zm56.691-34.465a4.033 4.033 0 01-4.027 4.031H307.805a4.035 4.035 0 01-4.028-4.031v-8.598h150.578zm28.168-28.602H278.457c-9.566-32.148-11.996-65.3-6.84-93.387 3.867-21.05 11.762-37.667 21.664-45.593 16.18-12.953 28.489-8.867 47.13-2.684 11.464 3.805 24.456 8.121 39.905 8.39h.348c15.45-.269 28.441-4.581 39.91-8.39 18.637-6.183 30.946-10.27 47.13 2.684 9.898 7.925 17.796 24.543 21.66 45.593 5.156 28.086 2.726 61.239-6.84 93.387zm0 0"/><path d="M206.816 127.93c-4.836 2.664-6.613 8.715-3.949 13.554.64 1.203 15.524 30.098-.695 78.75-1.746 5.239 1.086 10.903 6.328 12.653 1.047.347 2.113.515 3.164.515 4.188 0 8.09-2.652 9.484-6.843 19.168-57.496.094-93.172-.726-94.664-2.668-4.836-8.766-6.63-13.606-3.965zm0 0M207.563 248.574a10.11 10.11 0 00-.918-1.722 10.477 10.477 0 00-1.25-1.52 9.726 9.726 0 00-1.52-1.25 10.278 10.278 0 00-1.723-.922c-.609-.25-1.238-.437-1.867-.57a10 10 0 00-3.914 0 10.218 10.218 0 00-3.598 1.492c-.55.371-1.062.79-1.523 1.25-.457.461-.879.969-1.238 1.52-.36.539-.672 1.12-.922 1.722-.25.606-.438 1.227-.567 1.867a9.739 9.739 0 000 3.91 10.038 10.038 0 002.727 5.122c.46.46.973.879 1.523 1.238.54.363 1.118.672 1.73.922a10.01 10.01 0 003.821.77 10.082 10.082 0 003.828-.77 9.826 9.826 0 001.72-.922 9.31 9.31 0 001.519-1.238c.46-.461.882-.98 1.25-1.52a9.93 9.93 0 00.922-1.73 9.932 9.932 0 00.762-3.82c0-.66-.063-1.313-.192-1.962-.13-.64-.32-1.257-.57-1.867zm0 0"/></svg>