<svg viewBox="0 -32 496 496" xmlns="http://www.w3.org/2000/svg"><path d="M231.816 399.809c5.29.12 10.68.191 16.184.191v-16c-5.375 0-10.648-.07-15.816-.191zm0 0M52.832 365.344c25.258 10.879 79.984 29.746 162.77 33.855l.796-15.984c-80.27-3.985-132.964-22.117-157.23-32.559zm0 0"/><path d="M463.816 246.2C462.88 233.815 452.617 224 440 224h-32c-6.168 0-11.742 2.406-16 6.238-4.258-3.84-9.832-6.238-16-6.238h-32c-7.008 0-13.273 3.07-17.664 7.879-5.274-4.848-12.246-7.879-19.961-7.879h-36.75c-8.555 0-16.219 3.703-21.625 9.52-5.414-5.817-13.07-9.52-21.625-9.52h-36.75c-7.715 0-14.688 3.031-19.969 7.879C165.273 227.07 159.008 224 152 224h-32c-6.168 0-11.742 2.406-16 6.238-4.258-3.84-9.832-6.238-16-6.238H56c-12.617 0-22.879 9.816-23.816 22.2L1.449 346.097C.49 349.207 0 352.457 0 355.718c0 15.106 10.441 28.266 25 31.817C35.344 393.2 111.168 432 248 432s212.656-38.8 223-44.473c14.559-3.543 25-16.703 25-31.808 0-3.262-.488-6.504-1.45-9.621zM408 240h32c4.414 0 8 3.586 8 8v32c0 13.23-10.77 24-24 24s-24-10.77-24-24v-32c0-4.414 3.586-8 8-8zm-72 8c0-4.414 3.586-8 8-8h32c4.414 0 8 3.586 8 8v32c0 13.23-10.77 24-24 24s-24-10.77-24-24zm-66.375-8h36.75c7.512 0 13.625 6.113 13.625 13.625 0 .992-.113 1.992-.328 2.96l-10.281 46.247C307.152 312.945 298.35 320 288 320s-19.152-7.055-21.39-17.168l-10.282-46.246a13.729 13.729 0 01-.328-2.961c0-7.512 6.113-13.625 13.625-13.625zm-80 0h36.75c7.512 0 13.625 6.113 13.625 13.625 0 .992-.113 1.992-.328 2.96l-10.281 46.247C227.152 312.945 218.35 320 208 320s-19.152-7.055-21.39-17.168l-10.282-46.246a13.729 13.729 0 01-.328-2.961c0-7.512 6.113-13.625 13.625-13.625zM120 240h32c4.414 0 8 3.586 8 8v32c0 13.23-10.77 24-24 24s-24-10.77-24-24v-32c0-4.414 3.586-8 8-8zm-72 8c0-4.414 3.586-8 8-8h32c4.414 0 8 3.586 8 8v32c0 13.23-10.77 24-24 24s-24-10.77-24-24zm418.543 124.137l-1.285.254-1.153.664C463.367 373.488 388.23 416 248 416c-139.8 0-215.375-42.52-216.121-42.953l-1.152-.656-1.278-.254C21.656 370.567 16 363.672 16 355.719c0-1.672.246-3.328.742-4.918l17.7-57.52C39.944 308.793 54.624 320 72 320c13.129 0 24.703-6.45 32-16.246C111.297 313.55 122.871 320 136 320c14.29 0 26.754-7.594 33.832-18.887l1.152 5.192C174.864 323.793 190.09 336 208 336s33.137-12.207 37.016-29.695L248 292.879l2.984 13.426C254.864 323.793 270.09 336 288 336s33.137-12.207 37.016-29.695l1.152-5.192C333.246 312.406 345.711 320 360 320c13.129 0 24.703-6.45 32-16.246C399.297 313.55 410.871 320 424 320c17.375 0 32.055-11.207 37.559-26.719l17.699 57.52c.496 1.59.742 3.246.742 4.918 0 7.953-5.656 14.847-13.457 16.418zm0 0M264.191 32.2c-5.289-.138-10.687-.2-16.191-.2v16c5.367 0 10.64.063 15.809.191zm0 0M443.168 66.656c-25.258-10.879-79.984-29.746-162.77-33.855l-.796 15.976c80.285 4 132.972 22.125 157.23 32.575zm0 0"/><path d="M32.184 185.8C33.12 198.185 43.383 208 56 208h32c6.168 0 11.742-2.406 16-6.238 4.258 3.84 9.832 6.238 16 6.238h32c7.008 0 13.273-3.07 17.664-7.879 5.274 4.848 12.246 7.879 19.961 7.879h36.75c8.555 0 16.219-3.703 21.625-9.52 5.414 5.817 13.07 9.52 21.625 9.52h36.75c7.715 0 14.688-3.031 19.969-7.879C330.727 204.93 336.992 208 344 208h32c6.168 0 11.742-2.406 16-6.238 4.258 3.84 9.832 6.238 16 6.238h32c12.617 0 22.879-9.816 23.816-22.2l30.735-99.89A32.63 32.63 0 00496 76.281c0-15.105-10.441-28.273-25-31.816C460.656 38.8 384.832 0 248 0S35.344 38.8 25 44.473C10.441 48.008 0 61.176 0 76.28c0 3.27.488 6.512 1.45 9.621zM88 192H56c-4.414 0-8-3.594-8-8v-32c0-13.23 10.77-24 24-24s24 10.77 24 24v32c0 4.406-3.586 8-8 8zm72-8c0 4.406-3.586 8-8 8h-32c-4.414 0-8-3.594-8-8v-32c0-13.23 10.77-24 24-24s24 10.77 24 24zm66.375 8h-36.75c-7.512 0-13.625-6.113-13.625-13.625 0-1 .113-1.992.328-2.96l10.281-46.255C188.848 119.055 197.65 112 208 112s19.152 7.055 21.39 17.168l10.29 46.266c.207.957.32 1.949.32 2.949 0 7.504-6.113 13.617-13.625 13.617zm80 0h-36.75c-7.512 0-13.625-6.113-13.625-13.625 0-1 .113-1.992.328-2.96l10.281-46.255C268.848 119.055 277.65 112 288 112s19.152 7.055 21.39 17.168l10.29 46.266c.207.957.32 1.949.32 2.949 0 7.504-6.113 13.617-13.625 13.617zM376 192h-32c-4.414 0-8-3.594-8-8v-32c0-13.23 10.77-24 24-24s24 10.77 24 24v32c0 4.406-3.586 8-8 8zm72-8c0 4.406-3.586 8-8 8h-32c-4.414 0-8-3.594-8-8v-32c0-13.23 10.77-24 24-24s24 10.77 24 24zM29.457 59.863l1.285-.254 1.153-.664C32.633 58.52 107.77 16 248 16c139.8 0 215.375 42.52 216.121 42.953l1.152.664 1.278.254C474.344 61.426 480 68.328 480 76.281c0 1.672-.246 3.328-.742 4.918l-17.7 57.52C456.056 123.207 441.376 112 424 112c-13.129 0-24.703 6.45-32 16.246C384.703 118.45 373.129 112 360 112c-14.29 0-26.754 7.594-33.832 18.887l-1.152-5.192C321.136 108.207 305.91 96 288 96s-33.137 12.207-37.016 29.695L248 139.13l-2.984-13.434C241.136 108.207 225.91 96 208 96s-33.137 12.207-37.016 29.695l-1.152 5.192C162.754 119.594 150.289 112 136 112c-13.129 0-24.703 6.45-32 16.246C96.703 118.45 85.129 112 72 112c-17.375 0-32.047 11.207-37.559 26.719L16.742 81.19a16.406 16.406 0 01-.742-4.91c0-7.953 5.656-14.855 13.457-16.418zm0 0"/></svg>