<?xml version="1.0" encoding="utf-8"?><svg xmlns="http://www.w3.org/2000/svg" xmlns:xlink="http://www.w3.org/1999/xlink"><symbol viewBox="0 -46 417.813 417" id="check" xmlns="http://www.w3.org/2000/svg"><path d="M159.988 318.582c-3.988 4.012-9.43 6.25-15.082 6.25s-11.094-2.238-15.082-6.25L9.375 198.113c-12.5-12.5-12.5-32.77 0-45.246l15.082-15.086c12.504-12.5 32.75-12.5 45.25 0l75.2 75.203L348.104 9.781c12.504-12.5 32.77-12.5 45.25 0l15.082 15.086c12.5 12.5 12.5 32.766 0 45.246zm0 0"/></symbol><symbol viewBox="0 0 492 492" id="close" xmlns="http://www.w3.org/2000/svg"><path d="M300.188 246L484.14 62.04c5.06-5.064 7.852-11.82 7.86-19.024 0-7.208-2.792-13.972-7.86-19.028L468.02 7.872C462.952 2.796 456.196.016 448.984.016c-7.2 0-13.956 2.78-19.024 7.856L246.008 191.82 62.048 7.872C56.988 2.796 50.228.016 43.02.016c-7.2 0-13.96 2.78-19.02 7.856L7.872 23.988c-10.496 10.496-10.496 27.568 0 38.052L191.828 246 7.872 429.952C2.808 435.024.02 441.78.02 448.984c0 7.204 2.788 13.96 7.852 19.028l16.124 16.116c5.06 5.072 11.824 7.856 19.02 7.856 7.208 0 13.968-2.784 19.028-7.856l183.96-183.952 183.952 183.952c5.068 5.072 11.824 7.856 19.024 7.856h.008c7.204 0 13.96-2.784 19.028-7.856l16.12-16.116c5.06-5.064 7.852-11.824 7.852-19.028 0-7.204-2.792-13.96-7.852-19.028L300.188 246z"/></symbol><symbol viewBox="0 0 496 496.432" id="dental-care" xmlns="http://www.w3.org/2000/svg"><path d="M128.367 173.258l15.031 5.484a365.348 365.348 0 005.547-16.344l-15.265-4.789a370.407 370.407 0 01-5.313 15.649zM240.215 48V32h-11.742c-40.985 0-76.235 29.8-81.993 69.313-2 13.71-4.785 27.39-8.296 40.648l15.472 4.094a382.181 382.181 0 008.664-42.43C166.938 71.91 195.383 48 228.473 48zm71.137 54.688l-15.786 2.617c3.985 24.015 15.176 45.793 32.364 62.976 17.175 17.184 38.957 28.375 62.972 32.367l2.625-15.785c-20.703-3.437-39.48-13.086-54.28-27.902-14.813-14.8-24.462-33.57-27.895-54.274zm53.25 163.679l-4.387-2.879-4.383 2.88c-17.96 11.784-38.832 19.066-60.352 21.058l-7.265.672V354.8c0 45.816 26.976 87.504 68.73 106.199l3.27 1.473 3.273-1.465c41.75-18.703 68.727-60.39 68.727-106.2v-66.703l-7.262-.671c-21.52-2-42.394-9.282-60.351-21.067zm51.613 88.442c0 38.304-21.863 73.261-56 90.062-34.137-16.8-56-51.758-56-90.062v-52.305c19.816-2.832 38.96-9.664 56-19.992 17.043 10.328 36.183 17.16 56 19.992zM170.367 434.66l13.602-8.422 8.422 13.602-13.602 8.422zm27.211-16.84l13.602-8.422L219.602 423 206 431.422zm27.207-16.847l11.195-6.93 8.426 13.602-11.195 6.93zm0 0"/><path d="M496.215 250.305c0-50.578-39.543-91.993-91.977-96.328-15.98-1.32-31.023-8.297-42.367-19.633s-18.312-26.383-19.633-42.367C337.895 39.543 296.488 0 245.91 0h-17.437c-56.754 0-105.618 41.566-113.657 96.688-6.57 45.046-22.046 87.519-46 126.222L5.145 325.77a32.898 32.898 0 00-4.93 17.32c0 18.14 14.77 32.91 32.992 32.91a32.882 32.882 0 0017.16-4.832l132.016-80.68a17.055 17.055 0 018.855-2.488c9.364 0 16.977 7.617 16.977 16.977 0 3.12-.863 6.183-2.496 8.847l-80.672 132.024c-3.16 5.168-4.832 11.105-4.832 17.242 0 18.14 14.77 32.91 32.914 32.91a32.93 32.93 0 0017.328-4.93l102.848-63.664c.488-.3.984-.574 1.472-.863 17.59 31.855 46.649 56.969 82.91 69.059l2.528.832 2.527-.84a148.208 148.208 0 00101.473-140.785v-7.618c20.601-21.527 32-49.558 32-79.449zm-48 104.504c0 56.183-35.246 105.976-88 124.726a132.213 132.213 0 01-88-124.726V272h10.746c28.719 0 55.863-10.258 77.254-29.04 21.387 18.782 48.527 29.04 77.258 29.04h10.742zm32-87.067c0 19.45-5.621 37.985-16 53.906V256h-26.742c-27.047 0-52.473-10.527-71.602-29.656l-5.656-5.657-5.656 5.657C335.434 245.473 310.008 256 282.96 256h-26.746v98.809a148.33 148.33 0 0011.496 57.328c-.941.55-1.895 1.086-2.832 1.664l-102.84 63.664a16.9 16.9 0 01-8.91 2.535c-9.328 0-16.914-7.586-16.914-16.992 0-3.113.855-6.16 2.488-8.817l80.68-132.023a33.022 33.022 0 004.832-17.191c0-18.184-14.79-32.977-32.977-32.977a33.022 33.022 0 00-17.191 4.832L42.023 357.52c-2.656 1.625-5.703 2.48-8.894 2.48-9.328 0-16.914-7.586-16.914-16.91 0-3.145.875-6.227 2.527-8.906l63.664-102.848C107.527 190.762 123.762 146.23 130.648 99c6.903-47.32 48.954-83 97.825-83h17.437c42.18 0 76.738 33.23 80.387 77.297 1.633 19.742 10.246 38.344 24.262 52.36s32.617 22.64 52.363 24.265c44.062 3.644 77.293 38.207 77.293 80.383zm0 0"/><path d="M320.215 352v16c17.648 0 32 14.352 32 32h16c0-17.648 14.351-32 32-32v-16c-17.649 0-32-14.352-32-32h-16c0 17.648-14.352 32-32 32zm53.52 8a48.376 48.376 0 00-13.52 13.52 48.325 48.325 0 00-13.52-13.52 48.325 48.325 0 0013.52-13.52 48.376 48.376 0 0013.52 13.52zm-263.262-77.766l13.312-8.875 8.875 13.313-13.312 8.875zM83.844 299.98l13.312-8.875 8.875 13.313-13.312 8.875zm-26.625 17.75l13.316-8.875 8.875 13.317-13.316 8.875zm0 0"/></symbol><symbol viewBox="0 0 496 496" id="dentist" xmlns="http://www.w3.org/2000/svg"><path d="M264 152c0 8.836-7.164 16-16 16s-16-7.164-16-16 7.164-16 16-16 16 7.164 16 16zm96 0c0 8.836-7.164 16-16 16s-16-7.164-16-16 7.164-16 16-16 16 7.164 16 16zm0 0"/><path d="M440.184 348.762l-52.97-12.227-22.78-15.183c-3.168-2.13-7.395-1.696-10.098 1l-5.434 5.433-3.847-19.25c27.93-13.687 49.36-38.582 58.312-68.863C423.832 237.91 440 220.902 440 200V96c0-34.105-26.816-62.062-60.855-63.902C359.559 11.656 332.375 0 304 0h-48c-57.344 0-104 46.656-104 104v96c0 20.902 16.168 37.91 36.633 39.656 8.941 30.29 30.375 55.176 58.312 68.864l-3.847 19.25-5.434-5.434c-2.703-2.703-6.937-3.129-10.098-1l-22.78 15.184-46.106 10.64c-4.993-24.695-24-43.16-46.68-43.16-11.871 0-23.273 5.2-32 14.305C71.273 309.199 59.871 304 48 304c-26.473 0-48 25.129-48 56 0 20.809 9.8 38.969 24.281 48.617.649 18.863 3.453 37.582 8.649 55.735l5.496 19.214C40.504 490.886 47.273 496 54.879 496 64.32 496 72 488.32 72 478.879V440c0-4.414 3.586-8 8-8s8 3.586 8 8v38.879c0 9.059 7.09 16.418 16 17V496h384c4.426 0 8-3.574 8-8v-69.09c0-33.726-22.953-62.574-55.816-70.148zm-79.168-10.465l11.886 7.918-38.148 57.226L315.312 384zm-225.313 70.336c13.703-9.13 23.16-25.89 24.152-45.297l44.56-10.297 44.929 67.402a8.003 8.003 0 0012.312 1.215l9.48-9.48 8.81 11.754-7.009 56.07H122.61l4.47-15.64c5.144-18.008 7.944-36.606 8.624-55.727zm158.418 30.918c.621.16 1.215.449 1.879.449s1.258-.29 1.879-.45l5.058 40.45h-13.882zM392 184H200V99.543l15.734 5.898c51.512 19.313 109.028 19.313 160.524 0L392 99.543zm14.895 38.871c.648-4.879 1.105-9.816 1.105-14.871v-30.527c9.29 3.312 16 12.113 16 22.527 0 10.824-7.238 19.887-17.105 22.871zM256 16h48c25 0 48.902 10.695 65.594 29.336C371.114 47.03 373.727 48 376 48c26.473 0 48 21.527 48 48v72.207c-4.672-3.535-10.055-6.184-16-7.39V88a7.995 7.995 0 00-3.45-6.574 7.968 7.968 0 00-7.359-.914l-26.55 9.953c-47.887 17.969-101.383 17.969-149.29 0l-26.542-9.953a7.99 7.99 0 00-7.36.914A7.995 7.995 0 00184 88v72.809c-5.945 1.214-11.328 3.855-16 7.39V104c0-48.52 39.48-88 88-88zm-88 184c0-10.414 6.71-19.215 16-22.527V208c0 5.055.457 9.992 1.105 14.871C175.246 219.887 168 210.824 168 200zm32 8v-8h192v8c0 52.938-43.063 96-96 96s-96-43.063-96-96zm62.016 106.695a111.496 111.496 0 0067.968 0l5.336 26.68-36.976 36.977c-1.559 1.55-2.344 3.601-2.344 5.648s.785 4.098 2.344 5.656l11.097 11.098L296 418.664l-13.441-17.91 11.097-11.098c1.559-1.558 2.344-3.61 2.344-5.656s-.785-4.098-2.344-5.656l-36.976-36.977zm-31.032 23.602L276.687 384l-19.449 19.45-38.148-57.227zM80 416c-13.23 0-24 10.77-24 24v38.879c0 1.121-1.895 1.367-2.191.305l-5.496-19.215a215.637 215.637 0 01-7.801-44.723c2.449.45 4.937.754 7.488.754v-16c-17.648 0-32-17.945-32-40s14.352-40 32-40c9.863 0 19.055 5.656 25.207 15.52 2.922 4.687 10.656 4.687 13.578 0C92.945 325.656 102.137 320 112 320c17.648 0 32 17.945 32 40s-14.352 40-32 40v16c2.55 0 5.04-.305 7.488-.754a216.065 216.065 0 01-7.8 44.723l-5.497 19.215c-.296 1.062-2.199.816-2.191-.305V440c0-13.23-10.77-24-24-24zm400 64H319.062l-7.007-56.07 8.808-11.754 9.48 9.48a7.972 7.972 0 006.45 2.305 7.989 7.989 0 005.863-3.52l44.93-67.402 49.008 11.313C462.152 370.238 480 392.68 480 418.91zm0 0"/></symbol><symbol viewBox="0 0 300 300" id="denture" xmlns="http://www.w3.org/2000/svg"><path d="M189.005 38.878a4.277 4.277 0 100-8.554 4.277 4.277 0 000 8.554zM248 61.675c2.211 0 4-1.791 4-4v-8c0-2.209-1.789-4-4-4s-4 1.791-4 4v8c0 2.209 1.789 4 4 4zm0 8c-2.211 0-4 1.791-4 4v8c0 2.209 1.789 4 4 4s4-1.791 4-4v-8c0-2.209-1.789-4-4-4zm-16 0h8c2.211 0 4-1.791 4-4s-1.789-4-4-4h-8c-2.211 0-4 1.791-4 4s1.789 4 4 4zm32-8h-8c-2.211 0-4 1.791-4 4s1.789 4 4 4h8c2.211 0 4-1.791 4-4s-1.789-4-4-4zm-218 180c-7.719 0-14 6.281-14 14s6.281 14 14 14 14-6.281 14-14-6.281-14-14-14zm0 20c-3.309 0-6-2.691-6-6s2.691-6 6-6 6 2.691 6 6-2.691 6-6 6zm71.005-11.35a4.276 4.276 0 100 8.553 4.276 4.276 0 000-8.553zm128.94-150.631C188.328 83.156 129.89 82.581 72.272 97.969L69.77 96.6l-6.262-11.451c-1.398-2.562-5.617-2.562-7.016 0L50.23 96.6l-11.453 6.262c-1.285.701-2.082 2.047-2.082 3.51s.797 2.809 2.082 3.51l11.453 6.262 5.788 10.584c0 .032-.018.058-.018.09v20.879c0 7.707 6.273 13.979 13.98 13.979H72v12h-2.02c-7.707 0-13.98 6.271-13.98 13.979v29.396c0 6.936 5.145 12.889 11.965 13.852 28.016 3.953 56.77 5.932 86.07 5.932 29.465 0 59.477-2 89.828-6 6.918-.91 12.137-6.879 12.137-13.883v-29.297c0-7.707-6.273-13.979-13.98-13.979H240v-12h2.02c7.707 0 13.98-6.271 13.98-13.979v-34.559c0-6.217-4.137-11.747-10.055-13.444zm-190.851 9.992l-6.062-3.314 6.062-3.314a4 4 0 001.59-1.59L60 95.405l3.316 6.062a4 4 0 001.59 1.59l6.062 3.314-6.062 3.314a4 4 0 00-1.59 1.59L60 117.339l-3.316-6.062a4.01 4.01 0 00-1.59-1.591zM88 193.675c-4.41 0-8-3.588-8-8v-16h16v16c0 4.412-3.59 8-8 8zm16-8v-8h16v16c0 4.412-3.59 8-8 8s-8-3.588-8-8zm24-8h24v16c0 6.617-5.383 12-12 12s-12-5.383-12-12zm32 0h24v16c0 6.617-5.383 12-12 12s-12-5.383-12-12zm32 0h16v16c0 4.412-3.59 8-8 8s-8-3.588-8-8zm24-8h16v16c0 4.412-3.59 8-8 8s-8-3.588-8-8zm16-8h-16v-16c0-4.412 3.59-8 8-8s8 3.588 8 8zm-24 8h-16v-20c0-4.412 3.59-8 8-8s8 3.588 8 8zm-24 0h-24v-20c0-6.617 5.383-12 12-12s12 5.383 12 12zm-32 0h-24v-20c0-6.617 5.383-12 12-12s12 5.383 12 12zm-32 0h-16v-20c0-4.412 3.59-8 8-8s8 3.588 8 8zm-24-8H80v-16c0-4.412 3.59-8 8-8s8 3.588 8 8zm146.02 20a5.986 5.986 0 015.98 5.979v29.297c0 3.004-2.227 5.562-5.184 5.953-59.809 7.881-118.262 7.908-173.734.076-2.898-.408-5.082-2.957-5.082-5.93v-29.396a5.987 5.987 0 015.98-5.979H72v4c0 8.822 7.176 16 16 16 3.316 0 6.399-1.016 8.957-2.75 2.185 6.237 8.067 10.75 15.043 10.75 4.475 0 8.514-1.856 11.42-4.826 3.598 5.321 9.688 8.826 16.58 8.826 6.565 0 12.351-3.223 16-8.124 3.649 4.901 9.435 8.124 16 8.124 6.893 0 12.982-3.505 16.58-8.826 2.906 2.97 6.945 4.826 11.42 4.826 6.976 0 12.858-4.513 15.043-10.75a15.913 15.913 0 008.957 2.75c8.824 0 16-7.178 16-16v-4zm5.98-33.979a5.987 5.987 0 01-5.98 5.979H240v-8c0-8.822-7.176-16-16-16-5.84 0-10.904 3.177-13.698 7.86-2.792-2.373-6.359-3.86-10.302-3.86-4.475 0-8.514 1.856-11.42 4.826-3.598-5.321-9.688-8.826-16.58-8.826-6.565 0-12.351 3.223-16 8.124-3.649-4.901-9.435-8.124-16-8.124-6.893 0-12.982 3.505-16.58 8.826-2.906-2.97-6.945-4.826-11.42-4.826-3.943 0-7.51 1.487-10.302 3.86-2.794-4.683-7.858-7.86-13.698-7.86-8.824 0-16 7.178-16 16v8h-2.02a5.986 5.986 0 01-5.98-5.979v-20.879c0-.032-.018-.058-.018-.09l5.788-10.584 11.453-6.262a3.996 3.996 0 002.082-3.51c0-1.001-.395-1.93-1.042-2.653 53.634-12.917 107.908-11.713 161.476 3.664 2.508.719 4.262 3.086 4.262 5.754v34.56z"/><path d="M171.918 114.27c-6.395 0-12.406 2.49-16.922 7.01a4.002 4.002 0 000 5.658c.781.779 1.805 1.17 2.828 1.17s2.047-.391 2.828-1.172a15.819 15.819 0 0111.266-4.666c3.93 0 7.707 1.443 10.633 4.062a3.996 3.996 0 005.648-.309 3.998 3.998 0 00-.312-5.648 23.902 23.902 0 00-15.969-6.105z"/></symbol><symbol viewBox="0 0 64 64" id="implant" xmlns="http://www.w3.org/2000/svg"><path d="M12.002 29.203v5.8a3.004 3.004 0 003 2.996H27v1h-1.001c-1.654 0-3 1.346-3 3s1.346 3 3 3H27v1h-1.001c-1.654 0-3 1.346-3 3s1.346 3 3 3H27V53h-1.001c-1.654 0-3 1.346-3 3s1.346 3 3 3h1.524l3.695 4.624a1 1 0 001.563 0L36.477 59h1.524c1.654 0 3-1.346 3-3s-1.346-3-3-3H37v-1.001h1.001c1.654 0 3-1.346 3-3s-1.346-3-3-3H37v-1h1.001c1.654 0 3-1.346 3-3s-1.346-3-3-3H37v-1h11.998a3.004 3.004 0 003-2.996v-5.8C55.81 26.054 58 21.462 58 16.5 58 7.402 50.598 0 41.5 0A16.304 16.304 0 0032 3.025 16.304 16.304 0 0022.5 0C13.402 0 6 7.402 6 16.5c0 4.962 2.191 9.554 6.002 12.703zM32 61.398L30.083 59h3.834zM38.001 57H25.999a1 1 0 010-2h12.002a1 1 0 010 2zM35 53h-6v-1.001h6zm3.001-3.001H25.999a1 1 0 010-2h1.996L28 48l.005-.001h7.99L36 48l.005-.001h1.996a1 1 0 010 2zm-3.001-4h-6v-1h6zm3.001-3H25.999a1 1 0 010-2h1.996L28 41l.005-.001h7.99L36 41l.005-.001h1.996a1 1 0 010 2zm-3.001-4h-6v-1h6zM22.5 2c3.24 0 6.313 1.058 8.886 3.06.361.281.867.281 1.229 0A14.346 14.346 0 0141.5 2C49.495 2 56 8.505 56 16.5c0 4.512-2.047 8.689-5.615 11.46-.017.013-.024.033-.04.047-.053.046-.093.1-.135.155-.037.05-.075.097-.103.152-.026.055-.039.112-.057.172a.959.959 0 00-.041.204c-.001.021-.012.039-.012.06v6.249a1 1 0 01-1 1H15.002a1 1 0 01-1-1V28.75c0-.022-.012-.041-.013-.063a.93.93 0 00-.039-.193c-.017-.063-.031-.125-.06-.183-.025-.052-.063-.096-.097-.143a.974.974 0 00-.142-.165c-.016-.013-.022-.032-.038-.044A14.416 14.416 0 018 16.5C8 8.505 14.505 2 22.5 2z"/><path d="M41.5 7c5.238 0 9.5 4.262 9.5 9.5a1 1 0 102 0C53 10.159 47.841 5 41.5 5a1 1 0 100 2z"/></symbol><symbol viewBox="0 0 64 64" id="implant-change" xmlns="http://www.w3.org/2000/svg"><path d="M55 27h2.003c.133 0 .26-.028.377-.076.044-.019.078-.051.119-.075.067-.039.136-.075.192-.129.038-.037.063-.084.095-.126.043-.058.089-.112.12-.179.022-.05.029-.105.044-.159.017-.059.044-.112.049-.175l.961-11.822A8 8 0 0062 8c0-4.411-3.589-8-8-8a7.926 7.926 0 00-5 1.757A7.918 7.918 0 0044 0c-4.411 0-8 3.589-8 8a7.999 7.999 0 003.042 6.259l.961 11.822c.005.063.032.116.049.176.015.054.021.108.044.158.031.066.077.121.121.179.031.043.056.089.094.126.057.054.125.09.192.13.041.023.075.056.119.074a.991.991 0 00.377.076h2.003c2.757 0 5-2.243 5-5v-2.004a1 1 0 111.998 0V22c0 2.757 2.243 5 5 5zm4.894-20.106a6.01 6.01 0 01-4.787-4.787 6.013 6.013 0 014.787 4.787zM49 16.996a3.003 3.003 0 00-2.998 3V22c0 1.654-1.346 3-3 3h-1.08l-.921-11.333c-.001-.018-.012-.03-.014-.048-.009-.067-.034-.129-.057-.194-.021-.058-.035-.117-.065-.17-.032-.057-.079-.103-.123-.152-.041-.046-.077-.095-.126-.132-.017-.013-.024-.031-.041-.043A6.013 6.013 0 0138 8c0-3.309 2.691-6 6-6 1.626 0 3.147.641 4.285 1.805a1 1 0 001.43-.001 5.952 5.952 0 013.366-1.728 8.005 8.005 0 006.84 6.841 6.01 6.01 0 01-2.493 4.008c-.021.014-.03.036-.049.051-.034.027-.06.063-.091.095-.057.061-.113.118-.152.188-.028.05-.042.105-.062.16-.023.065-.049.128-.058.196-.003.019-.014.033-.016.052L56.08 25H55c-1.654 0-3-1.346-3-3v-2.004c0-1.654-1.346-3-3-3zM23.996 50.997a1 1 0 001-1v-1.77A7.998 7.998 0 0028 41.998c0-4.411-3.589-8-8-8a7.918 7.918 0 00-5 1.757 7.926 7.926 0 00-5-1.757c-4.411 0-8 3.589-8 8a7.998 7.998 0 003 6.228v1.771a1 1 0 001 1h5V52a1 1 0 100 2v1a1 1 0 100 2v1a1 1 0 100 2v.998c0 .334.167.646.445.832l3.002 2.002a1 1 0 001.111-.001l2.996-2.002c.277-.186.444-.497.444-.831V60H19a1 1 0 100-2h-.002v-1H19a1 1 0 100-2h-.002v-1H19a1 1 0 100-2h-.002v-1.003zM4 41.998c0-3.309 2.691-6 6-6 1.624 0 3.146.641 4.285 1.805a1.002 1.002 0 001.43 0A5.946 5.946 0 0120 35.998c3.309 0 6 2.691 6 6a6.013 6.013 0 01-2.575 4.928c-.023.017-.036.042-.058.061a.98.98 0 00-.145.15 1.037 1.037 0 00-.101.15.912.912 0 00-.069.178.923.923 0 00-.039.195c-.003.029-.018.056-.018.086v1.251H7v-1.253c0-.03-.015-.055-.017-.084a1.032 1.032 0 00-.04-.199c-.019-.062-.038-.118-.067-.174s-.064-.104-.104-.153a.905.905 0 00-.142-.148c-.021-.019-.034-.045-.059-.062A6.013 6.013 0 014 41.998zm12.998 18.466l-1.997 1.334L13 60.463V60h3.998zm0-2.464H13v-1h3.998zm0-3H13v-1h3.998zm0-3H13v-1.003h3.998zm32.004-2.999a1 1 0 001-1l-.002-.01V29a1 1 0 10-2 0v18.001H32.413l.294-.294a.999.999 0 10-1.414-1.414l-1.999 2a.99.99 0 00-.217.326.992.992 0 000 .764.99.99 0 00.217.326l1.999 1.998a.997.997 0 001.414 0 .999.999 0 000-1.414l-.292-.292zM31.293 15.293a.999.999 0 101.414 1.414l1.999-2a.99.99 0 00.217-.326.992.992 0 000-.764.99.99 0 00-.217-.326l-1.999-1.998a.999.999 0 10-1.414 1.414l.292.292H15a1 1 0 00-1 1v16.999a1 1 0 102 0V14.999h15.587z"/></symbol><symbol viewBox="0 0 50 60" id="implant-install" xmlns="http://www.w3.org/2000/svg"><path d="M34 42H16a2 2 0 00-2 2c0 11.75 0 11.11.08 11.38s-.1 0 3.63 3.74a3 3 0 002.12.88h10.34a3 3 0 002.12-.88l3.42-3.41A1.05 1.05 0 0036 55V44a2 2 0 00-2-2zm0 7.45c-1.6 1-7.83 4.31-18 4.53V49c9.17-.18 15.27-2.76 18-4.22zm0 2.31V54h-5.39A31.7 31.7 0 0034 51.76zM31 44a40.09 40.09 0 01-15 3v-3zm-.79 14H19.83c-.55 0-.62-.21-2.42-2h15.18c-1.83 1.83-1.88 2-2.42 2zM14 29v2a2 2 0 002 2h2v5a2 2 0 002 2h10a2 2 0 002-2v-5h2a2 2 0 002-2v-2a2 2 0 002-2v-2a2 2 0 00-2-2h-.43l-1.83-3a2 2 0 001.44-1A14.81 14.81 0 0037 12c0-5.8-1.84-12-7-12-3.36 0-3.85 3-5 3s-1.64-3-5-3c-5.16 0-7 6.2-7 12a14.81 14.81 0 001.82 7 2 2 0 001.44 1l-1.83 3H14a2 2 0 00-2 2v2a2 2 0 002 2zm16 9H20v-5h10zm4-7H16v-2h18zM15 12c0-1.67.24-10 5-10a2.69 2.69 0 012.29 1.36A3.43 3.43 0 0025 5a3.43 3.43 0 002.71-1.64A2.69 2.69 0 0130 2c4.76 0 5 8.33 5 10a13 13 0 01-1.57 6H16.57A13 13 0 0115 12zm3.57 8h12.86l1.8 3H16.77zM14 25h22v2H14zm31.29 1.71a1 1 0 001.42 0l3-3a1.004 1.004 0 00-1.42-1.42L47 23.59V13a1 1 0 00-2 0v10.59l-1.29-1.3a1.004 1.004 0 10-1.42 1.42zm-42 19a1 1 0 001.42 0l3-3a1.004 1.004 0 00-1.42-1.42L5 42.59V32a1 1 0 00-2 0v10.59l-1.29-1.3a1.004 1.004 0 00-1.42 1.42z"/><path d="M18.61 6.9a1 1 0 001.33-.47c.18-.36.3-.48.28-.48a1 1 0 00-.85-1.81 2.79 2.79 0 00-1.23 1.43 1 1 0 00.47 1.33zm-.55 7.1a1 1 0 001-1.12 15.08 15.08 0 010-2.78 1 1 0 10-1.99-.2 16.49 16.49 0 000 3.22 1 1 0 00.99.88z"/></symbol><symbol viewBox="0 -60 512.001 512" id="implant-two" xmlns="http://www.w3.org/2000/svg"><path d="M509.035 142.492c-4.789-26.094-15.031-46.547-28.836-57.594-24.664-19.742-45.64-12.78-65.926-6.05-10.55 3.5-21.46 7.12-33.78 7.367-12.325-.246-23.235-3.867-33.786-7.367-20.285-6.735-41.262-13.692-65.926 6.05-10.695 8.559-19.238 22.786-24.777 40.887-5.543-18.105-14.086-32.332-24.777-40.883-24.665-19.754-45.641-12.789-65.926-6.058-10.551 3.504-21.461 7.125-33.785 7.37-6.223-.12-12.086-1.109-17.723-2.507a50.872 50.872 0 019.422-4.121l7.59-2.438a.19.19 0 00.027-.011 13.138 13.138 0 009.113-12.551 13.126 13.126 0 00-9.14-12.512l-7.59-2.441C107.629 44.62 95.332 32.32 90.32 16.727l-2.449-7.61A13.136 13.136 0 0075.34 0h-.02a13.13 13.13 0 00-12.515 9.14l-2.438 7.59c-5.012 15.594-17.312 27.891-32.906 32.903l-7.586 2.441a13.121 13.121 0 00-9.14 12.512c-.012 5.734 3.652 10.781 9.136 12.562l7.598 2.442a50.36 50.36 0 017.351 3.031 79.594 79.594 0 00-3.02 2.281c-13.791 11.048-24.033 31.5-28.83 57.594-5.602 30.52-3.223 66.274 6.699 100.672 10.43 36.172 28.344 69.008 51.805 94.96 5.492 6.067 13.59 8.88 21.68 7.52 8.132-1.363 14.913-6.707 18.144-14.3 4.898-11.532 8.875-22.102 11.824-31.414 2.543-8.051 9.934-13.457 18.395-13.457a19.17 19.17 0 0111.41 3.722 19.105 19.105 0 016.988 9.735c2.93 9.27 6.914 19.836 11.832 31.414 3.219 7.582 9.992 12.925 18.117 14.297 1.348.23 2.7.34 4.035.34 6.688 0 13.082-2.794 17.664-7.848l.012-.012c23.453-25.953 41.363-58.79 51.793-94.957.965-3.34 1.832-6.695 2.653-10.05a255.767 255.767 0 003.39 12.487c2.445 8.18 10.137 13.891 18.7 13.891h5.663v8.598c0 13.25 10.782 24.031 24.032 24.031h34.843l1.012 16.75-2.918.344c-5.484.64-9.41 5.61-8.77 11.094.598 5.09 4.919 8.84 9.923 8.84.386 0 .777-.02 1.175-.067l1.801-.211 1.016 16.77-5.14.601c-5.49.645-9.415 5.61-8.774 11.098.597 5.09 4.918 8.84 9.922 8.84.386 0 .78-.024 1.175-.07l4.028-.47.172 2.86c.824 13.633 12.167 24.312 25.828 24.312h14.793c13.656 0 25-10.68 25.824-24.312l.652-10.73 7.496-.88c5.485-.64 9.41-5.609 8.77-11.093-.64-5.488-5.61-9.41-11.098-8.774l-3.941.461 1.027-17.008 5.242-.613c5.485-.644 9.41-5.61 8.77-11.097-.64-5.485-5.61-9.415-11.098-8.77l-1.687.2.488-8.075h31.996c13.25 0 24.031-10.781 24.031-24.031v-8.598h8.512c8.562 0 16.254-5.71 18.7-13.887 10.55-35.246 13.198-71.867 7.46-103.117zM75.348 32.816a71.204 71.204 0 0031.777 31.79 71 71 0 00-21.582 16.617A70.587 70.587 0 0075.34 96.375a71.054 71.054 0 00-14.63-19.758c-.003 0-.003 0-.007-.004A71.311 71.311 0 0043.555 64.61a71.17 71.17 0 0031.793-31.793zm111.394 291.891c-1.242 1.371-2.758 1.352-3.547 1.215-.812-.137-2.289-.629-3.039-2.395-4.672-10.992-8.43-20.964-11.168-29.617-2.527-8.02-7.457-14.887-14.25-19.851-6.77-4.961-14.8-7.586-23.218-7.586-.145 0-.29.007-.43.011 4.363-4.105 9.695-6.988 16.082-6.988 5.523 0 10-4.48 10-10 0-5.523-4.477-10.004-10-10.004-34.719 0-48.477 40.86-50.781 48.625a39.931 39.931 0 00-2.34 5.781c-2.758 8.711-6.512 18.684-11.156 29.622-.754 1.773-2.239 2.265-3.055 2.402-.79.133-2.297.152-3.531-1.207C34 277.91 11.929 204.46 22.64 146.109c3.87-21.05 11.765-37.668 21.66-45.59 2.379-1.898 4.695-3.46 6.996-4.703a48.7 48.7 0 011.734 2.258c.168.227.324.461.489.692a54.59 54.59 0 011.187 1.757c.148.239.305.473.453.715.5.809.988 1.625 1.442 2.461l.007.008c.457.84.883 1.695 1.293 2.559.118.254.23.507.348.761a64.544 64.544 0 011.156 2.742c.344.895.672 1.797.965 2.708l2.438 7.59a13.13 13.13 0 0012.515 9.14h.02c5.011 0 9.496-2.8 11.726-7.172.32-.625.594-1.281.813-1.965l2.445-7.597c.238-.743.5-1.477.77-2.203l.222-.582c.242-.63.496-1.254.762-1.872l.129-.308c.312-.703.64-1.399.98-2.086.086-.172.172-.34.262-.512.29-.566.586-1.129.895-1.683.082-.141.16-.286.238-.426.383-.668.777-1.324 1.187-1.969.086-.14.18-.277.27-.414.191-.297.394-.59.594-.883 10.172 3.285 21.55 6.457 34.71 6.684h.348c15.45-.274 28.446-4.586 39.91-8.39 18.633-6.184 30.942-10.274 47.125 2.687 9.899 7.918 17.793 24.535 21.665 45.593 10.707 58.348-11.356 131.786-53.653 178.598zm207.008 42.59a5.885 5.885 0 01-5.863 5.515h-14.793a5.887 5.887 0 01-5.864-5.515l-.238-3.985 27.188-3.18zm1.66-27.445l-29.629 3.464-1.015-16.77 31.671-3.706zm2.254-37.293l-34.11 3.992-.87-14.426h35.613zm56.691-34.465a4.033 4.033 0 01-4.027 4.031H307.805a4.035 4.035 0 01-4.028-4.031v-8.598h150.578zm28.168-28.602H278.457c-9.566-32.148-11.996-65.3-6.84-93.387 3.867-21.05 11.762-37.667 21.664-45.593 16.18-12.953 28.489-8.867 47.13-2.684 11.464 3.805 24.456 8.121 39.905 8.39h.348c15.45-.269 28.441-4.581 39.91-8.39 18.637-6.183 30.946-10.27 47.13 2.684 9.898 7.925 17.796 24.543 21.66 45.593 5.156 28.086 2.726 61.239-6.84 93.387zm0 0"/><path d="M206.816 127.93c-4.836 2.664-6.613 8.715-3.949 13.554.64 1.203 15.524 30.098-.695 78.75-1.746 5.239 1.086 10.903 6.328 12.653 1.047.347 2.113.515 3.164.515 4.188 0 8.09-2.652 9.484-6.843 19.168-57.496.094-93.172-.726-94.664-2.668-4.836-8.766-6.63-13.606-3.965zm.747 120.644a10.11 10.11 0 00-.918-1.722 10.477 10.477 0 00-1.25-1.52 9.726 9.726 0 00-1.52-1.25 10.278 10.278 0 00-1.723-.922 10.81 10.81 0 00-1.867-.57 10 10 0 00-3.914 0 10.218 10.218 0 00-3.598 1.492c-.55.371-1.062.79-1.523 1.25a9.67 9.67 0 00-1.238 1.52 10.06 10.06 0 00-.922 1.722c-.25.606-.438 1.227-.567 1.867a9.739 9.739 0 000 3.91 10.038 10.038 0 002.727 5.122c.46.46.973.879 1.523 1.238.54.363 1.118.672 1.73.922a10.01 10.01 0 003.821.77 10.082 10.082 0 003.828-.77 9.826 9.826 0 001.72-.922 9.31 9.31 0 001.519-1.238c.46-.461.882-.98 1.25-1.52a9.93 9.93 0 00.922-1.73 9.932 9.932 0 00.762-3.82c0-.66-.063-1.313-.192-1.962-.13-.64-.32-1.257-.57-1.867zm0 0"/></symbol><symbol viewBox="0 0 512 512" id="like" xmlns="http://www.w3.org/2000/svg"><path d="M469.51 317c7.14-7.97 11.49-18.49 11.49-30 0-24.81-20.19-45-45-45h-87.34c8.65-26.25 12.34-61.08 12.34-76.01V151c0-33.08-26.92-60-60-60h-15c-6.88 0-12.88 4.68-14.55 11.36l-8.17 32.69c-11.45 45.78-47.8 96.29-85.42 105.47C171.27 223.84 155 212 136 212H46c-8.28 0-15 6.72-15 15v270c0 8.28 6.72 15 15 15h90c17.89 0 33.37-10.49 40.62-25.65l51.54 17.18c16.85 5.62 34.41 8.47 52.18 8.47H406c24.81 0 45-20.19 45-45 0-5.85-1.12-11.45-3.16-16.58C466.92 445.21 481 427.72 481 407c0-11.51-4.35-22.03-11.49-30 7.14-7.97 11.49-18.49 11.49-30s-4.35-22.03-11.49-30zM151 467c0 8.27-6.73 15-15 15H61V242h75c8.27 0 15 6.73 15 15v210zm255-135h30c8.27 0 15 6.73 15 15s-6.73 15-15 15h-30c-8.28 0-15 6.72-15 15 0 8.28 6.72 15 15 15h30c8.27 0 15 6.73 15 15s-6.73 15-15 15h-30c-8.28 0-15 6.72-15 15 0 8.28 6.72 15 15 15 8.27 0 15 6.73 15 15s-6.73 15-15 15H280.34c-14.54 0-28.91-2.33-42.7-6.93L181 456.19V270.58c23.53-4.47 46.56-19.37 67.35-43.76 20.3-23.82 36.76-55.4 44.03-84.49l5.33-21.33H301c16.54 0 30 13.46 30 30v14.99c0 20.14-6.3 58.77-14.36 76.01H286c-8.28 0-15 6.72-15 15 0 8.28 6.72 15 15 15h150c8.27 0 15 6.73 15 15s-6.73 15-15 15h-30c-8.28 0-15 6.72-15 15 0 8.28 6.72 15 15 15z"/><circle cx="106" cy="437" r="15"/><path d="M316 0c-8.284 0-15 6.716-15 15v31c0 8.284 6.716 15 15 15s15-6.716 15-15V15c0-8.284-6.716-15-15-15zm-63.64 66.148l-21.213-21.213c-5.857-5.858-15.355-5.858-21.213 0-5.858 5.858-5.858 15.355 0 21.213l21.213 21.213c5.857 5.857 15.356 5.858 21.213 0 5.858-5.858 5.858-15.355 0-21.213zm169.706-21.213c-5.857-5.858-15.355-5.858-21.213 0L379.64 66.147c-5.858 5.858-5.858 15.355 0 21.213 5.857 5.858 15.355 5.859 21.213.001l21.213-21.213c5.858-5.858 5.858-15.355 0-21.213z"/></symbol><symbol viewBox="0 0 492.004 492.004" id="next" xmlns="http://www.w3.org/2000/svg"><path d="M484.14 226.886L306.46 49.202c-5.072-5.072-11.832-7.856-19.04-7.856-7.216 0-13.972 2.788-19.044 7.856l-16.132 16.136c-5.068 5.064-7.86 11.828-7.86 19.04 0 7.208 2.792 14.2 7.86 19.264L355.9 207.526H26.58C11.732 207.526 0 219.15 0 234.002v22.812c0 14.852 11.732 27.648 26.58 27.648h330.496L252.248 388.926c-5.068 5.072-7.86 11.652-7.86 18.864 0 7.204 2.792 13.88 7.86 18.948l16.132 16.084c5.072 5.072 11.828 7.836 19.044 7.836 7.208 0 13.968-2.8 19.04-7.872l177.68-177.68c5.084-5.088 7.88-11.88 7.86-19.1.016-7.244-2.776-14.04-7.864-19.12z"/></symbol><symbol viewBox="0 0 512 512" id="pin" xmlns="http://www.w3.org/2000/svg"><path d="M256 0C153.755 0 70.573 83.182 70.573 185.426c0 126.888 165.939 313.167 173.004 321.035 6.636 7.391 18.222 7.378 24.846 0 7.065-7.868 173.004-194.147 173.004-321.035C441.425 83.182 358.244 0 256 0zm0 278.719c-51.442 0-93.292-41.851-93.292-93.293S204.559 92.134 256 92.134s93.291 41.851 93.291 93.293-41.85 93.292-93.291 93.292z"/></symbol><symbol viewBox="0 -32 496 496" id="teeth" xmlns="http://www.w3.org/2000/svg"><path d="M231.816 399.809c5.29.12 10.68.191 16.184.191v-16c-5.375 0-10.648-.07-15.816-.191zM52.832 365.344c25.258 10.879 79.984 29.746 162.77 33.855l.796-15.984c-80.27-3.985-132.964-22.117-157.23-32.559zm0 0"/><path d="M463.816 246.2C462.88 233.815 452.617 224 440 224h-32c-6.168 0-11.742 2.406-16 6.238-4.258-3.84-9.832-6.238-16-6.238h-32c-7.008 0-13.273 3.07-17.664 7.879-5.274-4.848-12.246-7.879-19.961-7.879h-36.75c-8.555 0-16.219 3.703-21.625 9.52-5.414-5.817-13.07-9.52-21.625-9.52h-36.75c-7.715 0-14.688 3.031-19.969 7.879C165.273 227.07 159.008 224 152 224h-32c-6.168 0-11.742 2.406-16 6.238-4.258-3.84-9.832-6.238-16-6.238H56c-12.617 0-22.879 9.816-23.816 22.2L1.449 346.097A32.686 32.686 0 000 355.718c0 15.106 10.441 28.266 25 31.817C35.344 393.2 111.168 432 248 432s212.656-38.8 223-44.473c14.559-3.543 25-16.703 25-31.808 0-3.262-.488-6.504-1.45-9.621zM408 240h32c4.414 0 8 3.586 8 8v32c0 13.23-10.77 24-24 24s-24-10.77-24-24v-32c0-4.414 3.586-8 8-8zm-72 8c0-4.414 3.586-8 8-8h32c4.414 0 8 3.586 8 8v32c0 13.23-10.77 24-24 24s-24-10.77-24-24zm-66.375-8h36.75c7.512 0 13.625 6.113 13.625 13.625 0 .992-.113 1.992-.328 2.96l-10.281 46.247C307.152 312.945 298.35 320 288 320s-19.152-7.055-21.39-17.168l-10.282-46.246a13.729 13.729 0 01-.328-2.961c0-7.512 6.113-13.625 13.625-13.625zm-80 0h36.75c7.512 0 13.625 6.113 13.625 13.625 0 .992-.113 1.992-.328 2.96l-10.281 46.247C227.152 312.945 218.35 320 208 320s-19.152-7.055-21.39-17.168l-10.282-46.246a13.729 13.729 0 01-.328-2.961c0-7.512 6.113-13.625 13.625-13.625zM120 240h32c4.414 0 8 3.586 8 8v32c0 13.23-10.77 24-24 24s-24-10.77-24-24v-32c0-4.414 3.586-8 8-8zm-72 8c0-4.414 3.586-8 8-8h32c4.414 0 8 3.586 8 8v32c0 13.23-10.77 24-24 24s-24-10.77-24-24zm418.543 124.137l-1.285.254-1.153.664C463.367 373.488 388.23 416 248 416c-139.8 0-215.375-42.52-216.121-42.953l-1.152-.656-1.278-.254C21.656 370.567 16 363.672 16 355.719c0-1.672.246-3.328.742-4.918l17.7-57.52C39.944 308.793 54.624 320 72 320c13.129 0 24.703-6.45 32-16.246C111.297 313.55 122.871 320 136 320c14.29 0 26.754-7.594 33.832-18.887l1.152 5.192C174.864 323.793 190.09 336 208 336s33.137-12.207 37.016-29.695L248 292.879l2.984 13.426C254.864 323.793 270.09 336 288 336s33.137-12.207 37.016-29.695l1.152-5.192C333.246 312.406 345.711 320 360 320c13.129 0 24.703-6.45 32-16.246C399.297 313.55 410.871 320 424 320c17.375 0 32.055-11.207 37.559-26.719l17.699 57.52c.496 1.59.742 3.246.742 4.918 0 7.953-5.656 14.847-13.457 16.418zM264.191 32.2A621.36 621.36 0 00248 32v16c5.367 0 10.64.063 15.809.191zm178.977 34.456c-25.258-10.879-79.984-29.746-162.77-33.855l-.796 15.976c80.285 4 132.972 22.125 157.23 32.575zm0 0"/><path d="M32.184 185.8C33.12 198.185 43.383 208 56 208h32c6.168 0 11.742-2.406 16-6.238 4.258 3.84 9.832 6.238 16 6.238h32c7.008 0 13.273-3.07 17.664-7.879 5.274 4.848 12.246 7.879 19.961 7.879h36.75c8.555 0 16.219-3.703 21.625-9.52 5.414 5.817 13.07 9.52 21.625 9.52h36.75c7.715 0 14.688-3.031 19.969-7.879C330.727 204.93 336.992 208 344 208h32c6.168 0 11.742-2.406 16-6.238 4.258 3.84 9.832 6.238 16 6.238h32c12.617 0 22.879-9.816 23.816-22.2l30.735-99.89A32.63 32.63 0 00496 76.281c0-15.105-10.441-28.273-25-31.816C460.656 38.8 384.832 0 248 0S35.344 38.8 25 44.473C10.441 48.008 0 61.176 0 76.28c0 3.27.488 6.512 1.45 9.621zM88 192H56c-4.414 0-8-3.594-8-8v-32c0-13.23 10.77-24 24-24s24 10.77 24 24v32c0 4.406-3.586 8-8 8zm72-8c0 4.406-3.586 8-8 8h-32c-4.414 0-8-3.594-8-8v-32c0-13.23 10.77-24 24-24s24 10.77 24 24zm66.375 8h-36.75c-7.512 0-13.625-6.113-13.625-13.625 0-1 .113-1.992.328-2.96l10.281-46.255C188.848 119.055 197.65 112 208 112s19.152 7.055 21.39 17.168l10.29 46.266c.207.957.32 1.949.32 2.949 0 7.504-6.113 13.617-13.625 13.617zm80 0h-36.75c-7.512 0-13.625-6.113-13.625-13.625 0-1 .113-1.992.328-2.96l10.281-46.255C268.848 119.055 277.65 112 288 112s19.152 7.055 21.39 17.168l10.29 46.266c.207.957.32 1.949.32 2.949 0 7.504-6.113 13.617-13.625 13.617zM376 192h-32c-4.414 0-8-3.594-8-8v-32c0-13.23 10.77-24 24-24s24 10.77 24 24v32c0 4.406-3.586 8-8 8zm72-8c0 4.406-3.586 8-8 8h-32c-4.414 0-8-3.594-8-8v-32c0-13.23 10.77-24 24-24s24 10.77 24 24zM29.457 59.863l1.285-.254 1.153-.664C32.633 58.52 107.77 16 248 16c139.8 0 215.375 42.52 216.121 42.953l1.152.664 1.278.254C474.344 61.426 480 68.328 480 76.281c0 1.672-.246 3.328-.742 4.918l-17.7 57.52C456.056 123.207 441.376 112 424 112c-13.129 0-24.703 6.45-32 16.246C384.703 118.45 373.129 112 360 112c-14.29 0-26.754 7.594-33.832 18.887l-1.152-5.192C321.136 108.207 305.91 96 288 96s-33.137 12.207-37.016 29.695L248 139.13l-2.984-13.434C241.136 108.207 225.91 96 208 96s-33.137 12.207-37.016 29.695l-1.152 5.192C162.754 119.594 150.289 112 136 112c-13.129 0-24.703 6.45-32 16.246C96.703 118.45 85.129 112 72 112c-17.375 0-32.047 11.207-37.559 26.719L16.742 81.19A16.406 16.406 0 0116 76.28c0-7.953 5.656-14.855 13.457-16.418zm0 0"/></symbol></svg>